Tiffanys Lingerie Lesson
[img]http://bender1.zikuka.com/img/2010/01/05/b19ebfcc8371ea455053deb92c4ec872/image14010406.jpg[/img] 
http://bender1.zikuka.com/img/2010/01/05/b19ebfcc8371ea455053deb92c4ec872/image14010406.jpg
[img]http://bender1.zikuka.com/img/2010/01/05/3b701d889b5cbc22d43cbe420a1f049c/image14066406.jpg[/img]

[img]http://bender1.zikuka.com/img/2010/01/05/0c10ccb54db434dbf86002e468beedd3/image14068062.jpg[/img]

[img]http://bender1.zikuka.com/img/2010/01/05/40cc9b09482b32dde968399d15462943/image14069156.jpg[/img]

[img]http://bender1.zikuka.com/img/2010/01/05/31afae6111193e4b4982888e3378365d/image14070250.jpg[/img]

[img]http://bender1.zikuka.com/img/2010/01/05/9a65b5e8a30fced8711bc0c638b46b44/image14071421.jpg[/img]

[img]http://bender1.zikuka.com/img/2010/01/05/1022fdf271f31c493a3f21762cccf422/image14072312.jpg[/img]

[img]http://bender1.zikuka.com/img/2010/01/05/a5e0a7a4f3a1a1b5abe817b3b01d1551/image14073468.jpg[/img]

[img]http://bender1.zikuka.com/img/2010/01/05/d9444b730cfdb7a51aba56a809af507b/image14074609.jpg[/img]

[img]http://bender1.zikuka.com/img/2010/01/05/374fd5bc1c7c6115e2b62aa56d393795/image14075859.jpg[/img]

[img]http://bender1.zikuka.com/img/2010/01/05/7c1633185e2c3c73aa57ba101ea65bd0/image14077031.jpg[/img]

[img]http://bender1.zikuka.com/img/2010/01/05/ce4076d585e5bf39944302447e75c235/image14078312.jpg[/img]

[img]http://bender1.zikuka.com/img/2010/01/05/38f90fa83ca3d839bbe4a9adf4c9d741/image14079515.jpg[/img]

[img]http://bender1.zikuka.com/img/2010/01/05/c30d49321142fe6a1ab5a3ceed063484/image14081046.jpg[/img]

[img]http://bender1.zikuka.com/img/2010/01/05/72729231ff875fda78e1a5e282d1ff66/image14082125.jpg[/img]

[img]http://bender1.zikuka.com/img/2010/01/05/47592b1be0a1c23c37ff17e32a4f8941/image14083375.jpg[/img]

[img]http://bender1.zikuka.com/img/2010/01/05/66e83b7b12c7ab381b52abdc947a506c/image14085125.jpg[/img]

[img]http://bender1.zikuka.com/img/2010/01/05/bb650caf3335afda8a0f8469790ca327/image14086234.jpg[/img]

[img]http://bender1.zikuka.com/img/2010/01/05/2c54b47ba753ed8737bc748aa7e42bb7/image14087234.jpg[/img]

[img]http://bender1.zikuka.com/img/2010/01/05/bbe0888c0c76754f5e58f8663da95e4d/image14088250.jpg[/img]

[img]http://bender1.zikuka.com/img/2010/01/05/99d526fda308648731307af9824b3bd9/image14089406.jpg[/img]

[img]http://bender1.zikuka.com/img/2010/01/05/a0c92f6c31c2012127c316362a9f169d/image14090687.jpg[/img]

[img]http://bender1.zikuka.com/img/2010/01/05/f5d0ff8744477685cc97d317647444f2/image14091687.jpg[/img]

[img]http://bender1.zikuka.com/img/2010/01/05/2560c68d4bf11793431f7a8d5853089a/image14093625.jpg[/img]

[img]http://bender1.zikuka.com/img/2010/01/05/c62c88ca3df48982da2cb3d4f4a973b3/image14095625.jpg[/img]

[img]http://bender1.zikuka.com/img/2010/01/05/3ce94ccc463d8bda6a1a0249b8761c5f/image14097078.jpg[/img]

[img]http://bender1.zikuka.com/img/2010/01/05/b440c2cc55366c41e6f40b0ba56f82f3/image14098390.jpg[/img]

[img]http://bender1.zikuka.com/img/2010/01/05/0bcdcee08f8f83218b866a08566b1c89/image14100171.jpg[/img]

[img]http://bender1.zikuka.com/img/2010/01/05/2901fe0ff22ce857a6f9f3494781a767/image14101281.jpg[/img]

[img]http://bender1.zikuka.com/img/2010/01/05/e9cba41142585b6b094d532defc227e6/image14103375.jpg[/img]

[img]http://bender1.zikuka.com/img/2010/01/05/d1923a60c933b0bf3caa33da4e07d072/image14104875.jpg[/img]

Format                           : AVI
Format/Info                      : Audio Video Interleave
File size                        : 699 MiB
Duration                         : 1h 29mn
Overall bit rate                 : 1 095 Kbps
Writing application              : VirtualDubMod 1.5.10.1 (build 2439/release)
Writing library                  : VirtualDubMod build 2439/release

Video
Format                           : MPEG-4 Visual
Format profile                   : Streaming Video@L1
Format settings, BVOP            : Yes
Format settings, QPel            : No
Format settings, GMC             : No warppoints
Format settings, Matrix          : Default
Muxing mode                      : Packed bitstream
Codec ID                         : XVID
Codec ID/Hint                    : XviD
Duration                         : 1h 29mn
Bit rate                         : 964 Kbps
Width                            : 512 pixels
Height                           : 288 pixels
Display aspect ratio             : 16/9
Frame rate                       : 29.970 fps
Resolution                       : 24 bits
Colorimetry                      : 4:2:0
Scan type                        : Progressive
Bits/(Pixel*Frame)               : 0.218
Stream size                      : 615 MiB (88%)
Writing library                  : XviD 1.0.3 (UTC 2004-12-20)

Audio
Format                           : MPEG Audio
Format version                   : Version 1
Format profile                   : Layer 3
Codec ID                         : 55
Codec ID/Hint                    : MP3
Duration                         : 1h 29mn
Bit rate mode                    : Variable
Bit rate                         : 118 Kbps
Nominal bit rate                 : 128 Kbps
Channel(s)                       : 2 channels
Sampling rate                    : 48.0 KHz
Resolution                       : 16 bits
Stream size                      : 75.2 MiB (11%)
Alignment                        : Aligned on interleaves
Interleave, duration             : 24 ms (0.72 video frame)
Interleave, preload duration     : 492 ms
Writing library                  : LAME3.90.
Encoding settings                : ABR
Credits to org poster.screens and seedboxes by silverdust
A simple thankyou ensures my seedboxes are given priority on this file!(you will get the file faster)
No thanks=No re-seeds,No help~No worries i can't be arsed either.
Screens are posted for this file,how-ever some sites do not allow all picture hosts(and i do not have time upload pics to a certain host for a specific site).
I will not respond in this thread to any comments from now on(unless you are a member of a private site or are a respected member of a public site).
Thankyou to all the REAL contributors to the sites who keep the faith everyday.
Leechers,Ass-wipes,Zero posters keep on moaning into our deaf ears.
Contact? Old Skool-respected only (you know how);-)
[url]http://www.fhqhosting.com/ui/1ggggg.swf[/url]
[IMG]http://i43.servimg.com/u/f43/12/33/79/02/potpis10.gif[/IMG]
[IMG]http://www.myspaceninja.com/images/gg/glitterhkisses.gif[/IMG]